# xmcd
#
# Track frame offsets:
#	150
#	11217
#	21210
#	32875
#	44172
#	56262
#	66345
#	76642
#	87417
#	99815
#	112227
#	124185
#	136310
#	146232
#	157650
#	165917
#	173557
#	183735
#
# Disc length: 2607 seconds
#
# Revision: 1
# Processed by: cddbd v1.4PL0 Copyright (c) Steve Scherf et al.
# Submitted via: audiograbber 1.80
#
DISCID=ee0a2d12
DTITLE=Johnny Cash - The Essential Sun Collection (1)
DYEAR=1900
DGENRE=
TTITLE0=Cry, Cry, Cry
TTITLE1=Hey Porter
TTITLE2=So Doggone Lonesome
TTITLE3=Folsom Prison Blues
TTITLE4=I Walk The Line
TTITLE5=Get Rhythm
TTITLE6=There You Go
TTITLE7=Train Of Love
TTITLE8=Next In Line
TTITLE9=Don't Make Me Go
TTITLE10=Home Of The Blues
TTITLE11=Give My Love To Rose
TTITLE12=Ballad Of A Teenage Queen
TTITLE13=Big River
TTITLE14=Guess Things Happen That Way
TTITLE15=Come In Stranger
TTITLE16=The Ways Of A Woman In Love
TTITLE17=You're The Nearest Thing To Heaven
EXTD=
EXTT0=
EXTT1=
EXTT2=
EXTT3=
EXTT4=
EXTT5=
EXTT6=
EXTT7=
EXTT8=
EXTT9=
EXTT10=
EXTT11=
EXTT12=
EXTT13=
EXTT14=
EXTT15=
EXTT16=
EXTT17=
PLAYORDER=
